<?xml version="1.0" encoding="utf-8"?>
<!-- Generator: Adobe Illustrator 18.1.1, SVG Export Plug-In . SVG Version: 6.00 Build 0)  -->
<svg version="1.1" id="Layer_1" xmlns="http://www.w3.org/2000/svg" xmlns:xlink="http://www.w3.org/1999/xlink" x="0px" y="0px"
	 viewBox="0 0 1920 1080" enable-background="new 0 0 1920 1080" xml:space="preserve">
<g>
	<polygon fill="#8A92B2" points="959.9,220.9 838.4,422.5 959.9,367.3 	"/>
	<polygon fill="#62688F" points="959.9,367.3 838.4,422.5 959.9,494.4 	"/>
	<polygon fill="#62688F" points="1081.4,422.5 959.9,220.9 959.9,367.3 	"/>
	<polygon fill="#454A75" points="959.9,494.4 1081.4,422.5 959.9,367.3 	"/>
	<polygon fill="#8A92B2" points="838.4,445.6 959.9,616.8 959.9,517.4 	"/>
	<polygon fill="#62688F" points="960,517.4 960,616.8 1081.6,445.6 	"/>
</g>
<g>
	<path fill="#8A92B2" d="M584.4,813.3c0,2.1-1.8,3.6-3.9,3.6H508c1.8,17.9,15.3,34.3,34.3,34.3c13,0,22.6-4.9,29.9-15.3
		c0.8-1,1.8-1.8,3.1-1.8c2.1,0,3.6,1.6,3.6,3.6c0,0.8-0.3,1.3-0.5,1.8c-7.3,12.7-21.8,19-36.1,19c-24.4,0-41.8-21.8-41.8-45.2
		c0-23.4,17.4-45.2,41.8-45.2S584.4,790,584.4,813.3z M576.6,809.7c-1.6-17.9-15.3-34.3-34.3-34.3s-32.5,16.4-34.3,34.3H576.6z"/>
	<path fill="#8A92B2" d="M672.5,770c2.1,0,3.6,1.8,3.6,3.6c0,2.1-1.6,3.6-3.6,3.6H653v76.4c0,1.8-1.6,3.6-3.6,3.6
		c-2.1,0-3.6-1.8-3.6-3.6v-76.4H627c-2.1,0-3.6-1.6-3.6-3.6c0-1.8,1.6-3.6,3.6-3.6h18.7v-28.1c0-2.1,1.6-3.6,3.6-3.6
		c2.1,0,3.6,1.6,3.6,3.6V770H672.5z"/>
	<path fill="#8A92B2" d="M791.2,806.9v46.2c0,2.1-1.8,3.6-3.6,3.6c-2.1,0-3.6-1.6-3.6-3.6v-46.2c0-15.6-8.8-31.2-26.2-31.2
		c-22.3,0-32,19.5-30.7,39.5c0,0.5,0.3,2.9,0.3,3.1v34.8c0,2.1-1.6,3.6-3.6,3.6c-2.1,0-3.6-1.6-3.6-3.6v-152c0-1.8,1.6-3.6,3.6-3.6
		c2.1,0,3.6,1.8,3.6,3.6v86c6.2-11.2,17.4-18.7,30.4-18.7C779,768.4,791.2,787.1,791.2,806.9z"/>
	<path fill="#8A92B2" d="M921.3,813.3c0,2.1-1.8,3.6-3.9,3.6H845c1.8,17.9,15.3,34.3,34.3,34.3c13,0,22.6-4.9,29.9-15.3
		c0.8-1,1.8-1.8,3.1-1.8c2.1,0,3.6,1.6,3.6,3.6c0,0.8-0.3,1.3-0.5,1.8c-7.3,12.7-21.8,19-36.1,19c-24.4,0-41.8-21.8-41.8-45.2
		c0-23.4,17.4-45.2,41.8-45.2S921.3,790,921.3,813.3z M913.5,809.7c-1.6-17.9-15.3-34.3-34.3-34.3s-32.5,16.4-34.3,34.3H913.5z"/>
	<path fill="#8A92B2" d="M1010.4,773.3c0,2.3-1.3,3.6-3.4,3.9c-21.3,3.1-30.9,20.5-30.9,40.8v34.8c0,2.1-1.6,3.6-3.6,3.6
		s-3.6-1.6-3.6-3.6v-79.2c0-2.1,1.6-3.6,3.6-3.6s3.6,1.6,3.6,3.6v16.1c6-10.1,17.9-19.7,30.4-19.7
		C1008.4,770,1010.4,771.3,1010.4,773.3z"/>
	<path fill="#8A92B2" d="M1129.7,813.3c0,2.1-1.8,3.6-3.9,3.6h-72.5c1.8,17.9,15.3,34.3,34.3,34.3c13,0,22.6-4.9,29.9-15.3
		c0.8-1,1.8-1.8,3.1-1.8c2.1,0,3.6,1.6,3.6,3.6c0,0.8-0.3,1.3-0.5,1.8c-7.3,12.7-21.8,19-36.1,19c-24.4,0-41.8-21.8-41.8-45.2
		c0-23.4,17.4-45.2,41.8-45.2S1129.7,790,1129.7,813.3z M1121.9,809.7c-1.6-17.9-15.3-34.3-34.3-34.3s-32.5,16.4-34.3,34.3H1121.9z"
		/>
	<path fill="#8A92B2" d="M1246.8,774.1v25.2v54.3c0,2.1-1.8,3.6-3.6,3.6c-2.1,0-3.6-1.6-3.6-3.6v-15.1c-6,12-16.6,20.5-30.1,20.5
		c-21.6,0-33.5-18.7-33.5-38.4v-46.5c0-1.8,1.6-3.6,3.6-3.6s3.6,1.8,3.6,3.6v46.5c0,15.6,8.8,31.2,26.2,31.2
		c24.4,0,30.1-22.9,30.1-48.1v-29.6c0-1.8,1.6-3.6,3.6-3.6C1245,770.5,1246.8,772.3,1246.8,774.1z"/>
	<path fill="#8A92B2" d="M1430.5,806.6v46.5c0,2.1-1.8,3.6-3.6,3.6c-2.1,0-3.6-1.6-3.6-3.6v-46.5c0-15.6-8.8-30.9-26.2-30.9
		c-21.8,0-30.1,23.4-30.1,41.6v35.8c0,2.1-1.8,3.6-3.6,3.6c-2.1,0-3.6-1.6-3.6-3.6v-46.5c0-15.6-8.8-30.9-26.2-30.9
		c-22.1,0-31.2,17.4-30.4,40.5c0,0.5,0.3,1.6,0,1.8v35.1c0,2.1-1.6,3.6-3.6,3.6s-3.6-1.6-3.6-3.6v-79.5c0-2.1,1.6-3.6,3.6-3.6
		s3.6,1.6,3.6,3.6v13.2c6.2-11.2,17.4-18.4,30.4-18.4c14.8,0,26.2,9.4,30.9,23.1c6-13.5,17.7-23.1,32.7-23.1
		C1418.3,768.4,1430.5,786.8,1430.5,806.6z"/>
</g>
</svg>
